<svg width="40" height="40" viewBox="0 0 40 40" fill="none" xmlns="http://www.w3.org/2000/svg">
<rect width="40" height="40" rx="20" fill="black"/>
<path fill-rule="evenodd" clip-rule="evenodd" d="M11.9 10.5C11.4029 10.5 11 10.9029 11 11.4V25.5938C11 26.0908 11.4029 26.4938 11.9 26.4938H16.0155V29.5234C16.0155 30.147 16.7695 30.4593 17.2105 30.0183L20.7351 26.4938H25.3778C25.6165 26.4938 25.8454 26.399 26.0142 26.2302L28.7364 23.508C28.9052 23.3392 29 23.1103 29 22.8716V11.4C29 10.9029 28.5971 10.5 28.1 10.5H11.9ZM19.2189 15.7C19.2189 15.2858 18.8831 14.95 18.4689 14.95C18.0547 14.95 17.7189 15.2858 17.7189 15.7V19.9721C17.7189 20.3863 18.0547 20.7221 18.4689 20.7221C18.8831 20.7221 19.2189 20.3863 19.2189 19.9721V15.7ZM24.2345 15.7C24.2345 15.2858 23.8987 14.95 23.4845 14.95C23.0702 14.95 22.7345 15.2858 22.7345 15.7V19.9721C22.7345 20.3863 23.0702 20.7221 23.4845 20.7221C23.8987 20.7221 24.2345 20.3863 24.2345 19.9721V15.7Z" fill="white"/>
</svg>
