<svg width="40" height="40" viewBox="0 0 40 40" fill="none" xmlns="http://www.w3.org/2000/svg">
<rect width="40" height="40" rx="20" fill="black"/>
<path d="M19.9997 16.7505C18.2048 16.7505 16.7497 18.2056 16.7497 20.0005C16.7497 21.7955 18.2048 23.2505 19.9997 23.2505C21.7946 23.2505 23.2497 21.7955 23.2497 20.0005C23.2497 18.2056 21.7946 16.7505 19.9997 16.7505Z" fill="white"/>
<path fill-rule="evenodd" clip-rule="evenodd" d="M14.7692 11.082C18.2174 10.6966 21.7821 10.6966 25.2302 11.082C27.1286 11.2942 28.6598 12.79 28.8826 14.695C29.2949 18.22 29.2949 21.7811 28.8826 25.3061C28.6598 27.2111 27.1286 28.7069 25.2302 28.9191C21.7821 29.3044 18.2174 29.3044 14.7692 28.9191C12.8708 28.7069 11.3396 27.2111 11.1168 25.3061C10.7045 21.7811 10.7045 18.22 11.1168 14.695C11.3396 12.79 12.8708 11.2942 14.7692 11.082ZM24.9997 14.0005C24.4474 14.0005 23.9997 14.4482 23.9997 15.0005C23.9997 15.5528 24.4474 16.0005 24.9997 16.0005C25.552 16.0005 25.9997 15.5528 25.9997 15.0005C25.9997 14.4482 25.552 14.0005 24.9997 14.0005ZM15.2497 20.0005C15.2497 17.3772 17.3763 15.2505 19.9997 15.2505C22.623 15.2505 24.7497 17.3772 24.7497 20.0005C24.7497 22.6239 22.623 24.7505 19.9997 24.7505C17.3763 24.7505 15.2497 22.6239 15.2497 20.0005Z" fill="white"/>
</svg>
