<svg width="40" height="40" viewBox="0 0 40 40" fill="none" xmlns="http://www.w3.org/2000/svg">
<rect width="40" height="40" rx="20" fill="black"/>
<path fill-rule="evenodd" clip-rule="evenodd" d="M14.989 12.891C18.3247 12.6301 21.6756 12.6301 25.0113 12.891L27.252 13.0663C28.5001 13.164 29.5211 14.0994 29.7274 15.3341C30.2436 18.4236 30.2436 21.5774 29.7274 24.6669C29.5211 25.9017 28.5001 26.8371 27.252 26.9347L25.0113 27.11C21.6756 27.371 18.3247 27.371 14.989 27.11L12.7483 26.9347C11.5002 26.8371 10.4792 25.9017 10.2729 24.6669C9.75669 21.5774 9.75669 18.4236 10.2729 15.3341C10.4792 14.0994 11.5002 13.164 12.7483 13.0663L14.989 12.891ZM18.0001 22.4707V17.5304C18.0001 17.2972 18.2545 17.1532 18.4545 17.2731L22.5714 19.7433C22.7656 19.8598 22.7656 20.1412 22.5714 20.2578L18.4545 22.7279C18.2545 22.8479 18.0001 22.7038 18.0001 22.4707Z" fill="white"/>
</svg>
