<svg width="80" height="80" viewBox="0 0 80 80" fill="none" xmlns="http://www.w3.org/2000/svg">
<rect width="80" height="80" rx="40" fill="#D9D9D9"/>
<g clip-path="url(#clip0_275_31)">
<path d="M46 41.2012C46 42.7925 45.3679 44.3186 44.2426 45.4438C43.1174 46.569 41.5913 47.2012 40 47.2012C38.4087 47.2012 36.8826 46.569 35.7574 45.4438C34.6321 44.3186 34 42.7925 34 41.2012C34 39.6099 34.6321 38.0837 35.7574 36.9585C36.8826 35.8333 38.4087 35.2012 40 35.2012C41.5913 35.2012 43.1174 35.8333 44.2426 36.9585C45.3679 38.0837 46 39.6099 46 41.2012Z" fill="#FAFAFD"/>
<path d="M25.5998 30.4016C24.3268 30.4016 23.1059 30.9073 22.2057 31.8074C21.3055 32.7076 20.7998 33.9285 20.7998 35.2016V49.6016C20.7998 50.8746 21.3055 52.0955 22.2057 52.9957C23.1059 53.8958 24.3268 54.4016 25.5998 54.4016H54.3998C55.6728 54.4016 56.8937 53.8958 57.7939 52.9957C58.6941 52.0955 59.1998 50.8746 59.1998 49.6016V35.2016C59.1998 33.9285 58.6941 32.7076 57.7939 31.8074C56.8937 30.9073 55.6728 30.4016 54.3998 30.4016H51.587C50.3141 30.4013 49.0934 29.8954 48.1934 28.9952L46.2062 27.008C45.3062 26.1077 44.0855 25.6018 42.8126 25.6016H37.187C35.9141 25.6018 34.6934 26.1077 33.7934 27.008L31.8062 28.9952C30.9062 29.8954 29.6855 30.4013 28.4126 30.4016H25.5998ZM26.7998 35.2016C26.4815 35.2016 26.1763 35.0751 25.9513 34.8501C25.7262 34.625 25.5998 34.3198 25.5998 34.0016C25.5998 33.6833 25.7262 33.3781 25.9513 33.153C26.1763 32.928 26.4815 32.8016 26.7998 32.8016C27.1181 32.8016 27.4233 32.928 27.6483 33.153C27.8734 33.3781 27.9998 33.6833 27.9998 34.0016C27.9998 34.3198 27.8734 34.625 27.6483 34.8501C27.4233 35.0751 27.1181 35.2016 26.7998 35.2016ZM48.3998 41.2016C48.3998 43.4294 47.5148 45.566 45.9395 47.1413C44.3642 48.7166 42.2276 49.6016 39.9998 49.6016C37.772 49.6016 35.6354 48.7166 34.0601 47.1413C32.4848 45.566 31.5998 43.4294 31.5998 41.2016C31.5998 38.9737 32.4848 36.8372 34.0601 35.2619C35.6354 33.6866 37.772 32.8016 39.9998 32.8016C42.2276 32.8016 44.3642 33.6866 45.9395 35.2619C47.5148 36.8372 48.3998 38.9737 48.3998 41.2016Z" fill="#FAFAFD"/>
</g>
<defs>
<clipPath id="clip0_275_31">
<rect width="38.4" height="38.4" fill="white" transform="translate(20.7998 20.8008)"/>
</clipPath>
</defs>
</svg>
